<?xml version="1.0" encoding="UTF-8"?>
<svg id="Calque_2" data-name="Calque 2" xmlns="http://www.w3.org/2000/svg" viewBox="0 0 504.72 203.44">
  <defs>
    <style>
      .cls-1 {
        fill: #da2313;
      }

      .cls-2 {
        fill: #2d5013;
      }
    </style>
  </defs>
  <g id="SLIDE_1" data-name="SLIDE 1">
    <g>
      <g>
        <path class="cls-1" d="M202.71,108.11c-.25,3.96-.73,7.92-1.47,11.87-4.01,20.57-13.34,38.33-28,53.28-15.68,15.39-34.37,24.87-56.06,28.44-20.67,3.08-40.45.2-59.36-8.65-19.4-9.43-34.42-23.52-45.07-42.29-2.54-4.59-4.72-9.36-6.52-14.29C-.95,116.59-1.92,96.36,3.3,75.79c5.47-20.37,16.17-37.5,32.1-51.37C52.11,10.35,71.34,2.31,93.08.31c20.96-1.56,40.58,2.81,58.85,13.12,13.19,7.62,24.13,17.64,32.83,30.05h-3.59c-2.93,0-6.56.26-10.88.77-4.32.51-8.21,1.5-11.65,2.97-3.44,1.47-5.34,3.69-5.68,6.67-8.94-12.21-18.91-22.11-29.9-29.68-10.99-7.57-22.16-12.39-33.49-14.44-11.34-2.05-21.96-.9-31.88,3.44h-.07c-2.25,1.12-4.42,2.32-6.52,3.59h-.07c-10.16,6.84-17.37,16.54-21.62,29.09-4.25,12.56-5.36,26.57-3.33,42.03,2.03,15.46,7.29,31.01,15.79,46.65,8.94,15.73,19.58,28.57,31.92,38.51,12.34,9.94,25.05,16.33,38.15,19.16,13.09,2.83,25.26,1.44,36.5-4.18h.07c1.12-.63,2.25-1.27,3.37-1.91l.15-.15c11.04-7.18,18.66-17.6,22.87-31.26,4.2-13.66,4.84-28.86,1.91-45.62h-45v-2.93h37.41c8.92,0,20.12-.02,33.6-.07,0,.44-.03.88-.07,1.32.05.2.05.42,0,.66Z"/>
        <path class="cls-1" d="M301.28,189.24c0,2.39.45,4.41,1.36,6.05.9,1.64,2.03,2.97,3.37,3.99,1.34,1.03,2.69,1.81,4.03,2.35,1.34.54,2.94,1,4.8,1.39h-27.48c-1.76.1-3.52-.05-5.28-.44-4.2-1.17-7.11-3.79-8.72-7.84-6.4,2.39-12.98,4.4-19.75,6.01-6.77,1.61-13.57,2.42-20.41,2.42-5.62.05-10.92-.96-15.9-3.04-4.98-2.08-8.84-5.68-11.58-10.81-2.3-4.69-3.42-9.73-3.37-15.13.05-5.4,1.12-10.47,3.22-15.21,3.42-7.28,8.43-13.1,15.02-17.48,6.6-4.37,13.86-7.67,21.8-9.89,7.94-2.22,15.57-3.82,22.9-4.8h.07c2.34-.98,4.74-1.83,7.18-2.56v-2.13c0-3.37-.05-6.72-.15-10.04-.05-.44-.07-.9-.07-1.39-.1-4.35-.49-8.7-1.17-13.04-.44-2.93-1.17-5.9-2.2-8.9-1.03-3-2.59-5.58-4.69-7.73-2.69-2.44-5.67-3.27-8.94-2.49-3.27.78-6.03,2.47-8.28,5.06-3.03,3.66-5.23,7.93-6.6,12.79-1.37,4.86-2.2,9.64-2.49,14.33-3.27.05-6.29.97-9.05,2.75-2.76,1.78-5.22,3.82-7.37,6.12-.93-8.35.59-16.27,4.54-23.74,3.18-5.76,7.46-10.48,12.86-14.14,5.4-3.66,11.37-5.89,17.92-6.67,10.94-.98,20.76,1.86,29.46,8.5.78.73,1.56,1.44,2.34,2.13,1.37,1.17,2.66,2.47,3.88,3.88,2.15,2.64,3.91,5.47,5.28,8.5,2.93,6.5,4.08,13.26,3.44,20.3v70.94ZM272.55,191.95h.07c-.29-2.93-.37-5.91-.22-8.94.1-1.32.15-2.61.15-3.88v-51.81c-7.23,2.25-13.95,5.55-20.15,9.89-10.7,8.01-16.49,18.69-17.37,32.03-.34,5.96.54,11.73,2.64,17.29,2.1,5.57,6.08,9.55,11.95,11.95,7.82-1.61,15.46-3.79,22.94-6.52Z"/>
        <path class="cls-1" d="M352.29,173.78v-98.79c-3.47,4.25-7.74,7.48-12.83,9.67-5.08,2.2-10.38,3.05-15.9,2.57v102.45c.05,3.08.88,5.84,2.49,8.28,1.61,2.44,3.96,4.1,7.04,4.98,2.2.44,4.45.59,6.74.44.63-.05,1.27-.07,1.91-.07h24.11c-1.86-.39-3.44-.85-4.76-1.39-1.32-.54-2.65-1.32-3.99-2.35-1.34-1.03-2.48-2.36-3.41-3.99-.93-1.64-1.39-3.65-1.39-6.05v-15.76Z"/>
        <path class="cls-1" d="M504.72,203.02h-17.44c-8.5,0-12.97-.03-13.41-.07l-.59-.07c-6.01-1.27-9.6-4.93-10.77-10.99-.05-.54-.07-1.1-.07-1.69v-86.4c-.15-7.13-1.76-11.95-4.84-14.44-2.44-1.95-5.38-2.93-8.79-2.93-.78,0-1.61.05-2.49.15-4.5.64-9.01,1.98-13.56,4.03-7.04,3.27-12.43,6.33-16.2,9.16-3.08,2.49-6.11,5.06-9.09,7.7v81.71c0,4.2,1.59,7.55,4.76,10.04,2.34,1.76,4.81,2.91,7.4,3.44l1.39.29c-20.33,0-30.8-.05-31.44-.15-6.01-1.27-9.6-4.93-10.77-10.99-.05-.54-.07-35.57-.07-105.09l2.71.07c10.26,0,18.93-4.1,26.02-12.31v29.09c16.32-14.36,31.39-23.57,45.22-27.63l.29-.07c3.81-.93,7.3-1.39,10.48-1.39,3.96,0,7.38.73,10.26,2.2,9.09,4.74,14.61,14.27,16.56,28.58l.51,3.52v.07c.15,1.66.24,4.23.29,7.7l.07,33.71v38.99c0,4.15,1.59,7.47,4.76,9.97,2.3,1.81,4.76,2.98,7.4,3.52l1.39.29Z"/>
      </g>
      <g>
        <path class="cls-2" d="M342.9,30.55v.02s-5.82,0-5.82,0c-.11,0-.22.07-.26.18l-1.19,3.18c-.07.18.07.37.26.37h25.31c.26,0,.38.33.17.49l-8.7,6.75c-.09.07-.13.19-.09.3l1.05,3.21c.06.18.28.25.43.13l18.2-14.13c.21-.16.09-.49-.17-.49h-25.26v-.02h-3.93Z"/>
        <path class="cls-2" d="M352.16,46.65l-.96-2.88-2.44-7.39c-.04-.11-.14-.19-.26-.19h-3.36c-.19.01-.32.19-.26.37l2.9,8.77h0s.57,1.7.57,1.7l4.53,13.67c.08.26-.21.47-.43.31l-7.89-5.83c-.1-.07-.23-.07-.33,0l-2.65,1.99c-.15.11-.15.33,0,.44l18.1,13.39c.22.16.51-.05.43-.31l-7.95-24.04h0Z"/>
        <path class="cls-2" d="M330.82,42.14l7.82-22.89c.09-.25.44-.25.52,0l3.04,9.21c.04.11.14.19.26.19h3.35c.19,0,.32-.18.26-.36l-6.86-20.75c-.08-.25-.44-.25-.52,0l-11.07,32.42c-.04.11,0,.24.1.31l2.68,2.01c.15.11.37.05.43-.13Z"/>
        <path class="cls-2" d="M346.03,47.15l-21.41,14.71c-.22.15-.5-.07-.42-.32l3.89-11.4c.04-.11,0-.24-.1-.31l-2.68-2.01c-.15-.11-.37-.05-.43.13l-7.78,22.78c-.09.25.2.47.42.32l29.74-20.6c.1-.07.14-.2.1-.31l-.94-2.85c-.06-.17-.27-.24-.42-.14Z"/>
        <path class="cls-2" d="M337.75,50.57c.16-.11.16-.33,0-.45l-10.49-7.83-.35-.26h0s-9.69-7.24-9.69-7.24c-.21-.16-.1-.5.16-.5h9.93c.12,0,.22-.08.26-.19l1.04-3.18c.06-.18-.07-.36-.26-.36h-22.2c-.26,0-.38.34-.17.5l28.62,21.43c.09.07.22.07.32,0l2.81-1.92Z"/>
      </g>
    </g>
  </g>
</svg>