<svg xmlns="http://www.w3.org/2000/svg" width="32" height="32" viewBox="0 0 32 32">
  <g id="Groupe_45" data-name="Groupe 45" transform="translate(0.218 -0.498)">
    <g id="Ellipse_1" data-name="Ellipse 1" transform="translate(-0.218 0.498)" fill="#fff" stroke="#fff" stroke-width="2">
      <circle cx="16" cy="16" r="16" stroke="none"/>
      <circle cx="16" cy="16" r="15" fill="none"/>
    </g>
    <g id="youtube" transform="translate(7.325 10.342)">
      <g id="Groupe_6" data-name="Groupe 6" transform="translate(0 0)">
        <path id="Tracé_13" data-name="Tracé 13" d="M8.8,23.988h.1a48.351,48.351,0,0,1,6.678.366,2.2,2.2,0,0,1,1.547,1.552,9.9,9.9,0,0,1,.24,1.532l.011.114.024.284.009.114c.071,1,.08,1.935.081,2.139v.082c0,.212-.011,1.211-.09,2.252l-.009.115-.01.114a10.827,10.827,0,0,1-.257,1.7,2.194,2.194,0,0,1-1.547,1.552,49.522,49.522,0,0,1-6.755.366H8.666c-.338,0-1.735-.007-3.2-.057l-.186-.007-.1,0L5,36.2l-.187-.008a17.572,17.572,0,0,1-2.9-.284A2.194,2.194,0,0,1,.364,34.354a10.807,10.807,0,0,1-.257-1.7L.1,32.537.09,32.423Q.009,31.312,0,30.2v-.134c0-.235.011-1.047.07-1.943l.008-.113,0-.057.009-.114.024-.284.011-.114a9.876,9.876,0,0,1,.24-1.532,2.194,2.194,0,0,1,1.547-1.552,17.942,17.942,0,0,1,2.9-.284L5,24.062l.188-.007.094,0,.187-.008q1.56-.05,3.122-.056H8.8ZM7,27.5v5.266l4.544-2.632Z" transform="translate(0 -23.988)" fill="#da2313"/>
      </g>
    </g>
  </g>
</svg>
